HIERARCHY
ROOT Hips
{
	OFFSET 0.000000 0.000000 0.000000
	CHANNELS 6 Xposition Yposition Zposition Xrotation Yrotation Zrotation
	JOINT LeftUpLeg_virtual
	{
		OFFSET 0.000000 0.000000 0.000000
		CHANNELS 3 Xrotation Yrotation Zrotation
		JOINT LeftUpLeg
		{
			OFFSET 13.026900 -6.336304 -1.092800
			CHANNELS 3 Xrotation Yrotation Zrotation
			JOINT LeftLeg
			{
				OFFSET 0.524474 -46.096886 9.782700
				CHANNELS 3 Xrotation Yrotation Zrotation
				JOINT LeftFoot
				{
					OFFSET -0.524474 -53.427422 -12.948200
					CHANNELS 3 Xrotation Yrotation Zrotation
					JOINT LeftToeBase
					{
						OFFSET 0.192200 -14.009700 16.364100
						CHANNELS 3 Xrotation Yrotation Zrotation
						JOINT LeftToe_End
						{
							OFFSET -1.784700 -0.561700 9.474800
							CHANNELS 3 Xrotation Yrotation Zrotation
							End Site
							{
								OFFSET 0 0 0
							}
						}
					}
				}
			}
		}
	}
	JOINT RightUpLeg_virtual
	{
		OFFSET 0.000000 0.000000 0.000000
		CHANNELS 3 Xrotation Yrotation Zrotation
		JOINT RightUpLeg
		{
			OFFSET -12.883000 -6.336304 -1.092800
			CHANNELS 3 Xrotation Yrotation Zrotation
			JOINT RightLeg
			{
				OFFSET -0.524587 -46.096825 9.782800
				CHANNELS 3 Xrotation Yrotation Zrotation
				JOINT RightFoot
				{
					OFFSET 0.524587 -53.427383 -12.948300
					CHANNELS 3 Xrotation Yrotation Zrotation
					JOINT RightToeBase
					{
						OFFSET -0.192200 -14.009700 16.364100
						CHANNELS 3 Xrotation Yrotation Zrotation
						JOINT RightToe_End
						{
							OFFSET 1.784700 -0.561700 9.474800
							CHANNELS 3 Xrotation Yrotation Zrotation
							End Site
							{
								OFFSET 0 0 0
							}
						}
					}
				}
			}
		}
	}
	JOINT Spine_virtual
	{
		OFFSET 0.000000 0.000000 0.000000
		CHANNELS 3 Xrotation Yrotation Zrotation
		JOINT Spine
		{
			OFFSET 0.072000 7.257294 -0.789700
			CHANNELS 3 Xrotation Yrotation Zrotation
			JOINT Spine1
			{
				OFFSET 0.000000 12.508769 -0.658067
				CHANNELS 3 Xrotation Yrotation Zrotation
				JOINT Spine1_split
				{
					OFFSET 0.000000 12.508769 -0.658067
					CHANNELS 3 Xrotation Yrotation Zrotation
					JOINT Spine2
					{
						OFFSET 0.000000 12.508769 -0.658067
						CHANNELS 3 Xrotation Yrotation Zrotation
						JOINT Neck_virtual
						{
							OFFSET 0.000000 0.000000 0.000000
							CHANNELS 3 Xrotation Yrotation Zrotation
							JOINT Neck
							{
								OFFSET 0.000000 14.033295 7.520400
								CHANNELS 3 Xrotation Yrotation Zrotation
								JOINT Head
								{
									OFFSET 0.000000 8.198502 5.703100
									CHANNELS 3 Xrotation Yrotation Zrotation
									JOINT HeadTop_End
									{
										OFFSET 0.000000 17.760803 13.332701
										CHANNELS 3 Xrotation Yrotation Zrotation
										End Site
										{
											OFFSET 0 0 0
										}
									}
								}
							}
						}
						JOINT LeftShoulder_virtual
						{
							OFFSET 0.000000 0.000000 0.000000
							CHANNELS 3 Xrotation Yrotation Zrotation
							JOINT LeftShoulder
							{
								OFFSET 6.292450 5.785301 -0.669000
								CHANNELS 3 Xrotation Yrotation Zrotation
								JOINT LeftShoulder_split
								{
									OFFSET 6.292450 5.785301 -0.669000
									CHANNELS 3 Xrotation Yrotation Zrotation
									JOINT LeftArm
									{
										OFFSET 13.907140 -6.093903 1.965100
										CHANNELS 3 Xrotation Yrotation Zrotation
										JOINT LeftForeArm
										{
											OFFSET 34.140198 0.000000 0.000000
											CHANNELS 3 Xrotation Yrotation Zrotation
											JOINT LeftHand
											{
												OFFSET 40.960209 0.000000 0.000000
												CHANNELS 3 Xrotation Yrotation Zrotation
												End Site
												{
													OFFSET 0 0 0
												}
											}
										}
									}
								}
							}
						}
						JOINT RightShoulder_virtual
						{
							OFFSET 0.000000 0.000000 0.000000
							CHANNELS 3 Xrotation Yrotation Zrotation
							JOINT RightShoulder
							{
								OFFSET -6.292450 5.785301 -0.669000
								CHANNELS 3 Xrotation Yrotation Zrotation
								JOINT RightShoulder_split
								{
									OFFSET -6.292450 5.785301 -0.669000
									CHANNELS 3 Xrotation Yrotation Zrotation
									JOINT RightArm
									{
										OFFSET -13.907140 -6.093903 1.965100
										CHANNELS 3 Xrotation Yrotation Zrotation
										JOINT RightForeArm
										{
											OFFSET -34.140198 0.000000 0.000000
											CHANNELS 3 Xrotation Yrotation Zrotation
											JOINT RightHand
											{
												OFFSET -40.960209 0.000000 0.000000
												CHANNELS 3 Xrotation Yrotation Zrotation
												End Site
												{
													OFFSET 0 0 0
												}
											}
										}
									}
								}
							}
						}
					}
				}
			}
		}
	}
}
MOTION
Frames: 7
Frame Time: 0.03333333
-16.474100 25.505867 -83.685135 0.000000 0.000000 0.000000 -89.793273 19.249775 -0.482083 -54.916565 10.763074 34.626279 64.464698 7.450171 0.149383 29.868267 5.947259 -17.140018 -3.276529 0.212283 -1.004500 0.000000 0.000000 0.000000 -91.124853 22.936638 1.966809 -53.660172 -2.691615 -35.328112 98.026035 3.654657 -0.661129 24.364818 0.810165 20.096114 0.559369 2.037349 0.287865 0.000000 0.000000 0.000000 -89.045511 19.022948 -1.421772 57.426462 10.177724 -2.012308 18.322222 4.071571 0.624212 0.306407 -2.604428 0.843620 0.000000 0.000000 0.000000 21.847608 4.108304 0.254367 12.330107 -2.007231 -3.148221 30.163690 0.693451 0.461105 0.000000 0.000000 0.000000 20.160852 3.435931 -0.099142 1.380038 -4.652291 -10.334296 -2.371233 -2.034023 -5.725480 -35.460119 -18.573021 -35.624757 -7.625663 -56.581369 -2.174330 0.000000 0.000000 0.000000 19.534373 3.287811 0.554677 0.018387 11.831819 16.797875 -0.725272 0.203555 -3.585955 -26.314210 -7.478121 35.325643 1.450145 45.717595 -2.261086 0.000000 0.000000 0.000000 
-17.281521 25.309799 -86.603973 0.000000 0.000000 0.000000 -97.422738 18.364587 -1.320716 -48.220647 8.061621 34.647989 64.307160 6.531996 1.222282 28.435963 5.370798 -14.808682 -3.547967 0.451457 -1.343100 0.000000 0.000000 0.000000 -98.550669 23.333289 3.103020 -41.130419 -0.766041 -29.212169 94.842122 4.267839 -4.363377 21.457210 -0.250262 23.769139 -0.703968 1.707569 0.329267 0.000000 0.000000 0.000000 -97.456240 18.753078 -1.902677 55.394706 10.713719 -0.431510 19.171364 4.167375 0.731901 0.572814 -2.744375 1.028530 0.000000 0.000000 0.000000 21.912133 4.207412 0.133675 12.393032 -2.725154 -3.007307 31.944443 0.609334 -1.247444 0.000000 0.000000 0.000000 20.557867 3.514595 0.148380 1.125665 -4.181114 -8.908591 -1.672234 -1.850439 -5.492773 -30.255723 -19.065377 -32.859282 -9.379596 -59.030067 -3.649238 0.000000 0.000000 0.000000 20.005032 3.482805 0.705409 -0.118041 12.726053 16.260018 -1.416629 2.220655 -3.518111 -15.617748 -6.552255 35.479452 1.417383 41.090804 -1.487066 0.000000 0.000000 0.000000 
-17.918966 25.210762 -89.227097 0.000000 0.000000 0.000000 -104.313190 17.609090 -2.017376 -42.188866 5.545212 35.429595 64.031125 4.868805 2.149054 28.048901 3.499061 -13.086887 -3.176110 0.684091 -1.471662 0.000000 0.000000 0.000000 -105.172271 23.559056 4.306142 -30.285940 2.277867 -24.369941 92.795988 4.369496 -7.263811 18.142615 -2.470033 24.248650 -0.058222 1.370963 0.435248 0.000000 0.000000 0.000000 -105.100540 18.852256 -2.051005 53.075600 9.855158 1.159091 19.049848 3.818348 0.770364 1.827756 -2.448339 1.646396 0.000000 0.000000 0.000000 21.183914 3.856948 0.029113 12.053014 -3.310947 -2.424991 32.078438 0.524490 -3.104979 0.000000 0.000000 0.000000 19.899259 3.087666 0.357042 0.701777 -4.268143 -7.822663 -0.949764 -1.624451 -4.656735 -24.554892 -19.376714 -31.248925 -10.178374 -59.344563 -4.489374 0.000000 0.000000 0.000000 19.519175 3.192628 0.833709 0.140545 13.462603 15.290212 -2.415032 3.746389 -3.326226 -4.434367 -3.893759 35.220523 1.532876 34.112355 -0.952733 0.000000 0.000000 0.000000 
-18.618011 25.446602 -92.035172 0.000000 0.000000 0.000000 -110.067201 17.256362 -2.168019 -36.632620 3.616993 36.896211 63.154716 2.927765 3.024761 28.034872 0.801522 -12.386217 -2.616105 0.865284 -1.318974 0.000000 0.000000 0.000000 -111.010785 23.566482 5.435894 -22.164360 5.201495 -21.059309 92.007716 3.989079 -9.025611 15.543400 -4.868501 21.884746 2.297592 1.133861 0.481759 0.000000 0.000000 0.000000 -111.542665 19.249585 -1.581798 50.408388 7.519086 2.357362 17.774502 2.921867 0.675751 2.384950 -1.983564 2.147688 0.000000 0.000000 0.000000 19.543702 2.987323 -0.103884 11.388538 -3.729738 -1.399985 30.980102 0.985181 -5.303764 0.000000 0.000000 0.000000 18.157168 2.131123 0.414336 0.236628 -4.399196 -7.184307 -0.268810 -1.434960 -3.349024 -17.649547 -19.597495 -30.554821 -9.488246 -57.339698 -4.210146 0.000000 0.000000 0.000000 17.981260 2.279150 0.849092 0.760524 13.469183 14.010056 -2.870937 4.186770 -3.121663 6.232414 -0.140485 35.115427 1.923527 29.794398 -0.840841 0.000000 0.000000 0.000000 
-19.458525 26.107468 -94.951370 0.000000 0.000000 0.000000 -114.547060 17.312226 -1.728301 -31.703221 2.462596 38.852462 61.526084 1.251833 3.707985 27.637399 -2.089736 -12.631354 -2.327470 0.963181 -0.894368 0.000000 0.000000 0.000000 -115.943991 23.541244 6.678743 -17.071663 7.531976 -19.012943 92.543859 3.808007 -10.092103 14.839100 -5.824650 19.124858 4.182036 1.028390 0.312443 0.000000 0.000000 0.000000 -116.500187 19.686967 -0.558326 47.429964 3.898906 2.861914 15.500225 1.512839 0.403816 2.404457 -1.385053 2.197861 0.000000 0.000000 0.000000 17.076287 1.593746 -0.288792 9.984291 -3.904005 -0.302682 28.929150 2.127633 -7.847530 0.000000 0.000000 0.000000 15.618669 0.701170 0.299143 -0.145788 -4.327801 -6.633522 -0.191474 -0.959191 -2.472199 -8.969221 -19.691265 -29.962688 -8.044939 -53.291984 -3.369514 0.000000 0.000000 0.000000 15.499052 0.744979 0.694224 1.570975 12.372630 12.619198 -2.553313 3.441822 -3.022458 16.012417 3.744449 35.424059 2.484011 31.948476 -1.155487 0.000000 0.000000 0.000000 
-20.502102 27.007919 -97.906311 0.000000 0.000000 0.000000 -118.015232 17.516951 -0.918471 -27.677470 1.820635 41.027078 59.690813 0.273251 4.097831 26.568068 -4.465249 -13.632710 -2.432313 0.992616 -0.369949 0.000000 0.000000 0.000000 -120.008691 23.327012 7.777497 -14.706664 9.575656 -17.518296 94.199572 4.007457 -10.935980 15.935912 -5.097627 17.376102 4.344904 0.980683 -0.030632 0.000000 0.000000 0.000000 -120.195743 19.735622 0.660865 44.477577 -0.510691 2.690569 12.638828 -0.248734 -0.053442 1.557131 -1.048574 1.728352 0.000000 0.000000 0.000000 14.086009 -0.126740 -0.525152 7.744746 -3.888082 0.647947 26.354848 4.112046 -10.617842 0.000000 0.000000 0.000000 12.747734 -1.054221 0.004066 -0.370195 -3.614067 -5.987427 -0.574741 -0.561896 -2.169319 1.324052 -19.400126 -28.522192 -6.628445 -48.539778 -2.545257 0.000000 0.000000 0.000000 12.561561 -1.189073 0.327812 2.321473 10.189491 10.905073 -1.326904 1.924851 -2.817366 24.377997 6.728527 35.763601 3.256450 40.777811 -2.003475 0.000000 0.000000 0.000000 
-21.767555 27.578003 -101.140823 0.000000 0.000000 0.000000 -120.726722 17.721424 0.323953 -24.956697 1.469749 43.274129 58.153405 0.311767 4.133186 24.735477 -5.618040 -14.768566 -2.394951 0.982412 -0.081018 0.000000 0.000000 0.000000 -123.113641 22.835937 8.671653 -14.485038 11.689892 -16.125187 96.344012 4.403229 -11.645051 17.315373 -3.576854 16.109119 4.028818 0.925050 -0.326848 0.000000 0.000000 0.000000 -122.624900 19.367534 1.774590 41.770626 -5.052252 1.967567 9.767223 -2.140649 -0.570767 0.161564 -0.708212 1.091777 0.000000 0.000000 0.000000 11.030183 -1.936234 -0.823871 4.638489 -3.795361 1.094539 23.610533 6.949455 -13.483802 0.000000 0.000000 0.000000 10.104086 -2.798928 -0.382815 -0.388676 -2.146799 -5.111658 -1.352222 -0.405641 -2.337104 12.430556 -18.401809 -25.714527 -5.558012 -44.478779 -1.866056 0.000000 0.000000 0.000000 9.618818 -3.198652 -0.193966 2.810196 7.301040 9.001224 0.760648 0.542595 -2.613406 31.001897 8.396365 36.087345 4.478797 53.198284 -3.489646 0.000000 0.000000 0.000000 
